<svg xmlns="http://www.w3.org/2000/svg" width="26.223" height="24" viewBox="0 0 26.223 24">
  <g id="_711897" data-name="711897" transform="translate(0 -21.705)">
    <g id="Group_590" data-name="Group 590" transform="translate(17.493 39.166)">
      <g id="Group_589" data-name="Group 589" transform="translate(0 0)">
        <path id="Path_3436" data-name="Path 3436" d="M344.817,362.612a3.27,3.27,0,1,0,3.27,3.27A3.273,3.273,0,0,0,344.817,362.612Zm0,4.578a1.308,1.308,0,1,1,1.308-1.308A1.309,1.309,0,0,1,344.817,367.19Z" transform="translate(-341.547 -362.612)"/>
      </g>
    </g>
    <g id="Group_592" data-name="Group 592" transform="translate(0 21.705)">
      <g id="Group_591" data-name="Group 591">
        <path id="Path_3437" data-name="Path 3437" d="M26.015,26.528a.98.98,0,0,0-.772-.376H6.055l-.883-3.694a.981.981,0,0,0-.954-.753H.981a.981.981,0,1,0,0,1.962H3.444L6.632,37.006a.981.981,0,0,0,.954.753h15.27a.981.981,0,0,0,.952-.745l2.387-9.646A.983.983,0,0,0,26.015,26.528ZM22.088,35.8H8.36L6.524,28.114H23.989Z" transform="translate(0 -21.705)"/>
      </g>
    </g>
    <g id="Group_594" data-name="Group 594" transform="translate(5.624 39.166)">
      <g id="Group_593" data-name="Group 593" transform="translate(0 0)">
        <path id="Path_3438" data-name="Path 3438" d="M113.076,362.612a3.27,3.27,0,1,0,3.27,3.27A3.273,3.273,0,0,0,113.076,362.612Zm0,4.578a1.308,1.308,0,1,1,1.308-1.308A1.309,1.309,0,0,1,113.076,367.19Z" transform="translate(-109.806 -362.612)"/>
      </g>
    </g>
  </g>
</svg>
